<?xml version="1.0" encoding="UTF-8" standalone="no"?>
<svg xmlns="http://www.w3.org/2000/svg" version="1.2" baseProfile="tiny" viewBox="0.00 0.00 1440.00 900.00">
<g stroke-width="2.00" fill="none" stroke-linecap="butt">
<path stroke="#060b0c" vector-effect="non-scaling-stroke" d="
  M 1440.00 834.40
  L 1401.88 834.47
  C 1401.00 834.47 1400.46 833.51 1400.92 832.77
  C 1403.64 828.29 1403.78 822.58 1403.09 817.29
  C 1402.68 814.13 1402.86 810.95 1403.64 807.76
  C 1404.30 805.05 1404.50 800.41 1402.43 798.18
  C 1401.07 796.71 1399.80 795.24 1398.76 793.51
  C 1397.10 790.77 1394.96 788.32 1391.93 786.97
  C 1388.36 785.37 1384.78 783.59 1381.20 781.63
  C 1378.77 780.30 1375.92 779.15 1372.63 778.19
  C 1365.72 776.17 1358.91 774.99 1352.19 774.66
  C 1349.60 774.53 1346.90 774.35 1344.10 774.14
  C 1341.01 773.91 1337.58 774.01 1333.80 774.46
  C 1331.99 774.67 1330.38 774.02 1328.47 774.37
  C 1325.28 774.95 1321.98 775.39 1318.56 775.69
  C 1313.09 776.17 1307.71 777.88 1302.14 778.61
  C 1299.21 778.99 1296.34 780.13 1293.52 782.02
  C 1290.89 783.78 1288.23 783.74 1286.54 786.93
  C 1285.60 788.71 1284.23 790.04 1282.42 790.92
  C 1281.99 791.13 1281.66 791.44 1281.43 791.87
  C 1278.76 796.82 1277.19 801.57 1276.71 806.10
  C 1276.33 809.66 1275.92 813.32 1275.48 817.07
  C 1275.25 819.06 1276.09 820.93 1275.70 823.03
  C 1275.04 826.54 1274.73 830.50 1276.91 833.33
  C 1277.32 833.85 1276.91 834.61 1276.25 834.56
  C 1269.51 834.06 1262.94 834.06 1256.55 834.57
  C 1255.78 834.64 1255.18 834.53 1254.74 834.24
  C 1254.17 833.88 1254.06 833.36 1254.41 832.68
  C 1254.87 831.80 1254.58 830.71 1253.74 830.17
  C 1252.55 829.42 1250.91 828.81 1250.32 827.44
  C 1249.07 824.51 1251.33 823.22 1253.57 822.27
  C 1254.40 821.91 1254.77 820.93 1254.36 820.12
  C 1253.77 818.93 1252.91 818.04 1251.77 817.47
  C 1247.94 815.54 1250.66 810.38 1251.81 807.75
  C 1252.32 806.60 1251.84 805.26 1250.73 804.68
  C 1248.55 803.54 1245.77 802.26 1245.00 799.75
  C 1243.63 795.26 1242.54 790.76 1241.74 786.24
  C 1241.55 785.19 1241.74 784.14 1242.31 783.07
  C 1242.48 782.74 1242.53 782.38 1242.45 782.00
  C 1242.25 781.05 1241.81 780.22 1241.14 779.52
  C 1234.72 772.80 1230.34 764.36 1226.33 756.23
  C 1225.46 754.46 1224.92 752.57 1224.73 750.55
  C 1224.30 746.10 1223.02 742.05 1224.12 737.53
  C 1224.85 734.54 1224.96 731.77 1224.46 729.24
  C 1224.08 727.30 1224.22 725.48 1224.87 723.77
  C 1226.05 720.70 1224.78 719.53 1223.37 717.04
  C 1222.86 716.12 1223.06 714.97 1223.85 714.28
  C 1225.56 712.80 1225.60 711.18 1225.02 709.01
  C 1224.28 706.24 1223.50 703.55 1222.69 700.96
  C 1222.39 700.02 1222.34 699.01 1222.56 698.05
  C 1223.59 693.41 1224.69 688.92 1225.84 684.57
  C 1226.25 683.00 1227.75 678.62 1230.33 671.43
  C 1232.00 666.77 1233.24 662.04 1234.04 657.24
  C 1235.55 648.24 1236.87 639.08 1236.25 630.18
  C 1235.87 624.69 1235.30 619.36 1234.55 614.20
  C 1233.12 604.41 1229.90 595.60 1224.88 587.76
  C 1221.48 582.43 1215.98 576.74 1208.90 578.25
  C 1201.98 579.73 1196.33 583.18 1190.99 587.73
  C 1187.52 590.68 1184.21 593.55 1181.06 596.32
  C 1169.22 606.73 1158.96 618.96 1146.87 629.02
  C 1143.88 631.50 1140.44 632.88 1136.54 633.15
  C 1132.31 633.45 1131.71 638.90 1128.08 639.84
  C 1127.71 639.93 1127.36 639.90 1127.02 639.75
  C 1125.27 638.98 1124.01 638.70 1123.24 638.92
  C 1117.04 640.66 1110.63 642.17 1104.42 644.08
  C 1101.71 644.91 1098.89 645.49 1095.95 645.81
  C 1093.31 646.10 1090.57 644.45 1088.28 646.29
  C 1086.02 648.11 1082.06 647.76 1079.16 647.19
  C 1075.74 646.51 1072.75 646.99 1070.19 648.64
  C 1069.87 648.85 1069.52 648.94 1069.14 648.91
  C 1062.24 648.45 1054.64 648.47 1046.34 648.97
  C 1042.74 649.19 1038.68 647.19 1035.45 645.90
  C 1033.76 645.23 1032.07 645.18 1030.36 645.75
  C 1025.04 647.54 1018.08 650.19 1012.69 648.33
  C 1010.44 647.55 1008.17 646.80 1005.87 646.07
  C 1005.48 645.94 1005.05 646.11 1004.84 646.47
  C 1004.65 646.81 1004.54 647.18 1004.52 647.58
  C 1004.47 648.46 1003.61 649.06 1002.77 648.81
  L 989.51 644.78
  C 988.77 644.56 987.98 644.49 987.21 644.59
  L 978.56 645.70
  C 977.22 645.87 975.86 645.71 974.60 645.24
  C 971.77 644.19 968.89 643.12 965.96 642.05
  C 964.69 641.59 963.59 640.20 962.18 641.11
  C 960.02 642.50 958.96 648.15 955.07 644.90
  C 951.67 642.06 947.90 639.82 944.33 637.14
  C 936.06 630.92 928.35 624.40 919.92 618.26
  C 915.05 614.71 910.17 611.13 905.29 607.50
  C 898.52 602.46 891.21 597.78 883.36 593.46
  C 879.46 591.31 875.38 589.69 871.22 588.30
  C 868.45 587.37 865.28 587.39 861.70 588.37
  C 860.06 588.82 858.35 589.90 856.56 591.61
  C 854.45 593.62 852.85 595.57 851.74 597.46
  C 849.03 602.10 847.01 607.85 845.68 614.71
  C 844.86 618.96 844.96 623.15 844.62 627.39
  C 844.38 630.36 844.34 633.59 844.50 637.08
  C 845.33 655.13 848.36 672.76 853.59 689.97
  C 854.44 692.78 855.28 695.64 856.09 698.56
  C 856.66 700.61 856.85 702.76 856.66 705.00
  C 856.39 708.09 856.32 711.28 856.47 714.57
  C 856.55 716.33 856.97 719.24 857.74 723.30
  C 859.07 730.31 861.12 736.88 862.80 743.75
  C 863.11 745.05 862.71 746.06 861.58 746.78
  L 854.46 751.29
  C 853.85 751.68 853.83 752.55 854.41 752.97
  L 856.29 754.30
  C 857.03 754.83 857.24 755.84 856.77 756.62
  C 852.21 764.17 847.51 771.22 842.81 779.02
  C 842.20 780.05 841.84 781.15 841.74 782.34
  C 841.28 787.80 841.14 793.57 841.31 799.66
  C 841.40 802.54 838.91 804.92 837.30 807.14
  C 836.85 807.75 837.06 808.62 837.74 808.97
  L 840.25 810.26
  C 840.66 810.47 840.65 811.06 840.24 811.26
  L 835.50 813.56
  C 834.90 813.85 834.83 814.68 835.38 815.06
  C 837.01 816.19 838.87 817.02 840.97 817.56
  C 841.78 817.77 842.05 818.78 841.46 819.37
  L 835.23 825.65
  C 834.77 826.11 834.75 826.84 835.17 827.32
  C 837.02 829.43 839.05 831.41 841.26 833.24
  C 842.25 834.05 842.10 834.45 840.81 834.44
  L 815.86 834.15
  C 815.11 834.14 814.70 833.26 815.18 832.68
  C 817.61 829.72 816.05 824.93 816.25 821.44
  C 816.69 814.04 815.85 806.62 813.72 799.17
  C 812.58 795.18 810.63 791.99 807.88 789.61
  C 805.71 787.72 804.75 784.95 801.97 783.81
  C 799.33 782.74 797.31 781.04 794.67 779.88
  C 791.01 778.26 786.65 778.07 782.94 777.28
  C 776.82 775.98 771.04 775.56 765.23 774.39
  C 762.22 773.78 759.67 774.64 756.72 774.20
  C 754.61 773.88 752.46 773.82 750.26 774.02
  C 746.75 774.34 743.28 774.56 739.85 774.67
  C 731.62 774.96 724.99 776.56 717.25 778.96
  C 714.78 779.73 712.18 780.90 709.45 782.49
  C 706.70 784.08 704.02 785.41 701.39 786.47
  C 698.12 787.80 695.22 789.27 693.54 792.52
  C 691.74 796.01 688.05 797.71 687.76 801.97
  C 687.55 805.04 687.79 807.95 688.49 810.71
  C 689.41 814.32 688.28 817.92 688.21 821.66
  C 688.12 826.06 688.38 829.98 691.28 833.55
  C 691.56 833.89 691.33 834.40 690.89 834.43
  C 688.36 834.58 685.89 834.21 683.35 834.21
  C 460.90 834.16 238.45 834.16 16.00 834.21
  C 9.07 834.21 3.74 834.33 0.00 834.57"
/>
<path stroke="#7b711e" vector-effect="non-scaling-stroke" d="
  M 1145.07 787.04
  C 1144.82 785.70 1144.65 784.35 1144.58 783.00
  C 1144.00 772.55 1134.77 762.56 1124.64 760.53
  C 1120.61 759.72 1116.46 759.33 1112.21 759.35
  C 1111.41 759.36 1110.65 759.59 1109.93 760.05
  C 1109.52 760.32 1109.24 760.68 1109.09 761.14
  C 1109.01 761.37 1109.19 761.61 1109.43 761.60
  C 1114.62 761.45 1118.13 761.57 1119.98 761.98
  C 1128.32 763.83 1134.36 768.54 1138.11 776.10
  C 1145.25 790.47 1138.62 807.44 1123.25 812.48
  C 1119.91 813.57 1116.69 813.15 1113.33 813.29
  C 1110.92 813.38 1108.56 813.16 1106.24 812.62
  C 1097.03 810.47 1091.02 804.84 1088.21 795.71
  C 1086.99 791.76 1087.55 787.67 1087.45 783.57
  C 1087.41 781.94 1087.77 780.36 1088.54 778.83
  C 1089.45 777.02 1090.25 775.06 1090.92 772.95
  C 1090.93 772.92 1090.93 772.89 1090.91 772.86
  C 1090.89 772.83 1090.86 772.81 1090.82 772.81
  C 1090.67 772.82 1090.57 772.90 1090.52 773.03
  C 1089.84 774.74 1087.61 774.84 1086.88 776.92
  C 1085.93 779.63 1084.73 782.00 1084.44 784.97
  C 1083.79 791.67 1084.67 797.46 1087.06 802.33
  C 1089.95 808.20 1093.84 812.43 1098.74 815.01
  C 1111.67 821.80 1128.08 820.09 1138.35 809.15
  C 1141.12 806.20 1143.03 802.56 1144.10 798.21
  C 1144.91 794.90 1145.71 790.43 1145.07 787.04"
/>
<path stroke="#7b711e" vector-effect="non-scaling-stroke" d="
  M 934.47 793.01
  C 932.69 783.84 934.48 775.98 941.66 769.39
  C 944.55 766.73 948.51 764.54 953.56 762.83
  C 955.75 762.08 955.70 761.55 953.41 761.23
  C 952.40 761.09 951.42 761.17 950.47 761.46
  C 943.23 763.75 937.20 767.67 932.74 774.14
  C 931.75 775.57 931.28 777.12 930.47 778.63
  C 929.94 779.62 929.57 780.74 929.35 782.01
  C 928.16 788.81 928.95 795.53 931.72 802.17
  C 934.81 809.54 942.07 814.78 949.48 817.02
  C 960.37 820.31 970.38 818.91 979.51 812.83
  C 983.86 809.94 987.03 805.98 989.02 800.95
  C 991.21 795.46 990.80 787.80 989.14 782.26
  C 988.40 779.76 986.97 777.26 984.84 774.76
  C 984.65 774.53 984.47 774.29 984.32 774.03
  C 984.15 773.76 983.93 773.61 983.65 773.58
  C 983.10 773.52 982.92 773.75 983.12 774.27
  C 984.99 779.21 986.85 784.06 986.87 789.50
  C 986.90 802.10 978.06 810.18 966.16 812.11
  C 961.02 812.95 955.97 812.58 951.00 811.01
  C 942.70 808.39 936.14 801.66 934.47 793.01"
/>
<path stroke="#7b711e" vector-effect="non-scaling-stroke" d="
  M 1116.0486 776.8300
  C 1117.35 774.90 1116.79 772.25 1114.7903 770.8939
  C 1112.79 769.54 1110.11 770.00 1108.8114 771.9300
  C 1107.51 773.86 1108.07 776.51 1110.0697 777.8661
  C 1112.07 779.22 1114.75 778.76 1116.0486 776.8300"
/>
<path stroke="#7b711e" vector-effect="non-scaling-stroke" d="
  M 964.65 779.71
  C 966.76 779.23 968.39 775.87 967.25 774.04
  C 966.48 772.79 965.27 771.84 963.63 771.18
  C 963.27 771.03 962.87 771.04 962.51 771.19
  C 960.72 771.95 959.39 773.12 958.50 774.70
  C 958.33 774.99 958.29 775.31 958.36 775.64
  C 959.14 779.12 961.24 780.48 964.65 779.71"
/>
<path stroke="#7b711e" vector-effect="non-scaling-stroke" d="
  M 1127.44 778.53
  C 1127.58 778.48 1127.67 778.38 1127.72 778.23
  C 1127.80 777.95 1127.63 777.66 1127.35 777.59
  C 1125.76 777.21 1124.20 777.05 1122.68 777.10
  C 1121.08 777.16 1120.28 779.05 1121.36 780.23
  C 1121.95 780.88 1122.74 781.16 1123.71 781.07
  C 1124.18 781.03 1124.61 780.80 1124.89 780.42
  C 1125.55 779.55 1126.40 778.92 1127.44 778.53"
/>
<path stroke="#7b711e" vector-effect="non-scaling-stroke" d="
  M 972.8333 782.8253
  C 973.95 783.13 975.13 782.36 975.4750 781.1050
  C 975.82 779.85 975.20 778.58 974.0867 778.2747
  C 972.97 777.97 971.79 778.74 971.4450 779.9950
  C 971.10 781.25 971.72 782.52 972.8333 782.8253"
/>
<path stroke="#7b711e" vector-effect="non-scaling-stroke" d="
  M 977.77 779.53
  C 977.85 779.30 977.88 779.06 977.86 778.82
  C 977.83 778.39 977.60 778.18 977.17 778.21
  C 976.90 778.22 976.65 778.30 976.43 778.44
  C 976.21 778.59 976.16 778.88 976.31 779.10
  C 976.52 779.41 976.79 779.65 977.11 779.81
  C 977.37 779.94 977.68 779.80 977.77 779.53"
/>
</g>
<path fill="#091314" d="
  M 0.00 0.00
  L 1440.00 0.00
  L 1440.00 834.40
  L 1401.88 834.47
  C 1401.00 834.47 1400.46 833.51 1400.92 832.77
  C 1403.64 828.29 1403.78 822.58 1403.09 817.29
  C 1402.68 814.13 1402.86 810.95 1403.64 807.76
  C 1404.30 805.05 1404.50 800.41 1402.43 798.18
  C 1401.07 796.71 1399.80 795.24 1398.76 793.51
  C 1397.10 790.77 1394.96 788.32 1391.93 786.97
  C 1388.36 785.37 1384.78 783.59 1381.20 781.63
  C 1378.77 780.30 1375.92 779.15 1372.63 778.19
  C 1365.72 776.17 1358.91 774.99 1352.19 774.66
  C 1349.60 774.53 1346.90 774.35 1344.10 774.14
  C 1341.01 773.91 1337.58 774.01 1333.80 774.46
  C 1331.99 774.67 1330.38 774.02 1328.47 774.37
  C 1325.28 774.95 1321.98 775.39 1318.56 775.69
  C 1313.09 776.17 1307.71 777.88 1302.14 778.61
  C 1299.21 778.99 1296.34 780.13 1293.52 782.02
  C 1290.89 783.78 1288.23 783.74 1286.54 786.93
  C 1285.60 788.71 1284.23 790.04 1282.42 790.92
  C 1281.99 791.13 1281.66 791.44 1281.43 791.87
  C 1278.76 796.82 1277.19 801.57 1276.71 806.10
  C 1276.33 809.66 1275.92 813.32 1275.48 817.07
  C 1275.25 819.06 1276.09 820.93 1275.70 823.03
  C 1275.04 826.54 1274.73 830.50 1276.91 833.33
  C 1277.32 833.85 1276.91 834.61 1276.25 834.56
  C 1269.51 834.06 1262.94 834.06 1256.55 834.57
  C 1255.78 834.64 1255.18 834.53 1254.74 834.24
  C 1254.17 833.88 1254.06 833.36 1254.41 832.68
  C 1254.87 831.80 1254.58 830.71 1253.74 830.17
  C 1252.55 829.42 1250.91 828.81 1250.32 827.44
  C 1249.07 824.51 1251.33 823.22 1253.57 822.27
  C 1254.40 821.91 1254.77 820.93 1254.36 820.12
  C 1253.77 818.93 1252.91 818.04 1251.77 817.47
  C 1247.94 815.54 1250.66 810.38 1251.81 807.75
  C 1252.32 806.60 1251.84 805.26 1250.73 804.68
  C 1248.55 803.54 1245.77 802.26 1245.00 799.75
  C 1243.63 795.26 1242.54 790.76 1241.74 786.24
  C 1241.55 785.19 1241.74 784.14 1242.31 783.07
  C 1242.48 782.74 1242.53 782.38 1242.45 782.00
  C 1242.25 781.05 1241.81 780.22 1241.14 779.52
  C 1234.72 772.80 1230.34 764.36 1226.33 756.23
  C 1225.46 754.46 1224.92 752.57 1224.73 750.55
  C 1224.30 746.10 1223.02 742.05 1224.12 737.53
  C 1224.85 734.54 1224.96 731.77 1224.46 729.24
  C 1224.08 727.30 1224.22 725.48 1224.87 723.77
  C 1226.05 720.70 1224.78 719.53 1223.37 717.04
  C 1222.86 716.12 1223.06 714.97 1223.85 714.28
  C 1225.56 712.80 1225.60 711.18 1225.02 709.01
  C 1224.28 706.24 1223.50 703.55 1222.69 700.96
  C 1222.39 700.02 1222.34 699.01 1222.56 698.05
  C 1223.59 693.41 1224.69 688.92 1225.84 684.57
  C 1226.25 683.00 1227.75 678.62 1230.33 671.43
  C 1232.00 666.77 1233.24 662.04 1234.04 657.24
  C 1235.55 648.24 1236.87 639.08 1236.25 630.18
  C 1235.87 624.69 1235.30 619.36 1234.55 614.20
  C 1233.12 604.41 1229.90 595.60 1224.88 587.76
  C 1221.48 582.43 1215.98 576.74 1208.90 578.25
  C 1201.98 579.73 1196.33 583.18 1190.99 587.73
  C 1187.52 590.68 1184.21 593.55 1181.06 596.32
  C 1169.22 606.73 1158.96 618.96 1146.87 629.02
  C 1143.88 631.50 1140.44 632.88 1136.54 633.15
  C 1132.31 633.45 1131.71 638.90 1128.08 639.84
  C 1127.71 639.93 1127.36 639.90 1127.02 639.75
  C 1125.27 638.98 1124.01 638.70 1123.24 638.92
  C 1117.04 640.66 1110.63 642.17 1104.42 644.08
  C 1101.71 644.91 1098.89 645.49 1095.95 645.81
  C 1093.31 646.10 1090.57 644.45 1088.28 646.29
  C 1086.02 648.11 1082.06 647.76 1079.16 647.19
  C 1075.74 646.51 1072.75 646.99 1070.19 648.64
  C 1069.87 648.85 1069.52 648.94 1069.14 648.91
  C 1062.24 648.45 1054.64 648.47 1046.34 648.97
  C 1042.74 649.19 1038.68 647.19 1035.45 645.90
  C 1033.76 645.23 1032.07 645.18 1030.36 645.75
  C 1025.04 647.54 1018.08 650.19 1012.69 648.33
  C 1010.44 647.55 1008.17 646.80 1005.87 646.07
  C 1005.48 645.94 1005.05 646.11 1004.84 646.47
  C 1004.65 646.81 1004.54 647.18 1004.52 647.58
  C 1004.47 648.46 1003.61 649.06 1002.77 648.81
  L 989.51 644.78
  C 988.77 644.56 987.98 644.49 987.21 644.59
  L 978.56 645.70
  C 977.22 645.87 975.86 645.71 974.60 645.24
  C 971.77 644.19 968.89 643.12 965.96 642.05
  C 964.69 641.59 963.59 640.20 962.18 641.11
  C 960.02 642.50 958.96 648.15 955.07 644.90
  C 951.67 642.06 947.90 639.82 944.33 637.14
  C 936.06 630.92 928.35 624.40 919.92 618.26
  C 915.05 614.71 910.17 611.13 905.29 607.50
  C 898.52 602.46 891.21 597.78 883.36 593.46
  C 879.46 591.31 875.38 589.69 871.22 588.30
  C 868.45 587.37 865.28 587.39 861.70 588.37
  C 860.06 588.82 858.35 589.90 856.56 591.61
  C 854.45 593.62 852.85 595.57 851.74 597.46
  C 849.03 602.10 847.01 607.85 845.68 614.71
  C 844.86 618.96 844.96 623.15 844.62 627.39
  C 844.38 630.36 844.34 633.59 844.50 637.08
  C 845.33 655.13 848.36 672.76 853.59 689.97
  C 854.44 692.78 855.28 695.64 856.09 698.56
  C 856.66 700.61 856.85 702.76 856.66 705.00
  C 856.39 708.09 856.32 711.28 856.47 714.57
  C 856.55 716.33 856.97 719.24 857.74 723.30
  C 859.07 730.31 861.12 736.88 862.80 743.75
  C 863.11 745.05 862.71 746.06 861.58 746.78
  L 854.46 751.29
  C 853.85 751.68 853.83 752.55 854.41 752.97
  L 856.29 754.30
  C 857.03 754.83 857.24 755.84 856.77 756.62
  C 852.21 764.17 847.51 771.22 842.81 779.02
  C 842.20 780.05 841.84 781.15 841.74 782.34
  C 841.28 787.80 841.14 793.57 841.31 799.66
  C 841.40 802.54 838.91 804.92 837.30 807.14
  C 836.85 807.75 837.06 808.62 837.74 808.97
  L 840.25 810.26
  C 840.66 810.47 840.65 811.06 840.24 811.26
  L 835.50 813.56
  C 834.90 813.85 834.83 814.68 835.38 815.06
  C 837.01 816.19 838.87 817.02 840.97 817.56
  C 841.78 817.77 842.05 818.78 841.46 819.37
  L 835.23 825.65
  C 834.77 826.11 834.75 826.84 835.17 827.32
  C 837.02 829.43 839.05 831.41 841.26 833.24
  C 842.25 834.05 842.10 834.45 840.81 834.44
  L 815.86 834.15
  C 815.11 834.14 814.70 833.26 815.18 832.68
  C 817.61 829.72 816.05 824.93 816.25 821.44
  C 816.69 814.04 815.85 806.62 813.72 799.17
  C 812.58 795.18 810.63 791.99 807.88 789.61
  C 805.71 787.72 804.75 784.95 801.97 783.81
  C 799.33 782.74 797.31 781.04 794.67 779.88
  C 791.01 778.26 786.65 778.07 782.94 777.28
  C 776.82 775.98 771.04 775.56 765.23 774.39
  C 762.22 773.78 759.67 774.64 756.72 774.20
  C 754.61 773.88 752.46 773.82 750.26 774.02
  C 746.75 774.34 743.28 774.56 739.85 774.67
  C 731.62 774.96 724.99 776.56 717.25 778.96
  C 714.78 779.73 712.18 780.90 709.45 782.49
  C 706.70 784.08 704.02 785.41 701.39 786.47
  C 698.12 787.80 695.22 789.27 693.54 792.52
  C 691.74 796.01 688.05 797.71 687.76 801.97
  C 687.55 805.04 687.79 807.95 688.49 810.71
  C 689.41 814.32 688.28 817.92 688.21 821.66
  C 688.12 826.06 688.38 829.98 691.28 833.55
  C 691.56 833.89 691.33 834.40 690.89 834.43
  C 688.36 834.58 685.89 834.21 683.35 834.21
  C 460.90 834.16 238.45 834.16 16.00 834.21
  C 9.07 834.21 3.74 834.33 0.00 834.57
  L 0.00 0.00
  Z"
/>
<path fill="#030303" d="
  M 1440.00 834.40
  L 1440.00 900.00
  L 0.00 900.00
  L 0.00 834.57
  C 3.74 834.33 9.07 834.21 16.00 834.21
  C 238.45 834.16 460.90 834.16 683.35 834.21
  C 685.89 834.21 688.36 834.58 690.89 834.43
  C 691.33 834.40 691.56 833.89 691.28 833.55
  C 688.38 829.98 688.12 826.06 688.21 821.66
  C 688.28 817.92 689.41 814.32 688.49 810.71
  C 687.79 807.95 687.55 805.04 687.76 801.97
  C 688.05 797.71 691.74 796.01 693.54 792.52
  C 695.22 789.27 698.12 787.80 701.39 786.47
  C 704.02 785.41 706.70 784.08 709.45 782.49
  C 712.18 780.90 714.78 779.73 717.25 778.96
  C 724.99 776.56 731.62 774.96 739.85 774.67
  C 743.28 774.56 746.75 774.34 750.26 774.02
  C 752.46 773.82 754.61 773.88 756.72 774.20
  C 759.67 774.64 762.22 773.78 765.23 774.39
  C 771.04 775.56 776.82 775.98 782.94 777.28
  C 786.65 778.07 791.01 778.26 794.67 779.88
  C 797.31 781.04 799.33 782.74 801.97 783.81
  C 804.75 784.95 805.71 787.72 807.88 789.61
  C 810.63 791.99 812.58 795.18 813.72 799.17
  C 815.85 806.62 816.69 814.04 816.25 821.44
  C 816.05 824.93 817.61 829.72 815.18 832.68
  C 814.70 833.26 815.11 834.14 815.86 834.15
  L 840.81 834.44
  C 842.10 834.45 842.25 834.05 841.26 833.24
  C 839.05 831.41 837.02 829.43 835.17 827.32
  C 834.75 826.84 834.77 826.11 835.23 825.65
  L 841.46 819.37
  C 842.05 818.78 841.78 817.77 840.97 817.56
  C 838.87 817.02 837.01 816.19 835.38 815.06
  C 834.83 814.68 834.90 813.85 835.50 813.56
  L 840.24 811.26
  C 840.65 811.06 840.66 810.47 840.25 810.26
  L 837.74 808.97
  C 837.06 808.62 836.85 807.75 837.30 807.14
  C 838.91 804.92 841.40 802.54 841.31 799.66
  C 841.14 793.57 841.28 787.80 841.74 782.34
  C 841.84 781.15 842.20 780.05 842.81 779.02
  C 847.51 771.22 852.21 764.17 856.77 756.62
  C 857.24 755.84 857.03 754.83 856.29 754.30
  L 854.41 752.97
  C 853.83 752.55 853.85 751.68 854.46 751.29
  L 861.58 746.78
  C 862.71 746.06 863.11 745.05 862.80 743.75
  C 861.12 736.88 859.07 730.31 857.74 723.30
  C 856.97 719.24 856.55 716.33 856.47 714.57
  C 856.32 711.28 856.39 708.09 856.66 705.00
  C 856.85 702.76 856.66 700.61 856.09 698.56
  C 855.28 695.64 854.44 692.78 853.59 689.97
  C 848.36 672.76 845.33 655.13 844.50 637.08
  C 844.34 633.59 844.38 630.36 844.62 627.39
  C 844.96 623.15 844.86 618.96 845.68 614.71
  C 847.01 607.85 849.03 602.10 851.74 597.46
  C 852.85 595.57 854.45 593.62 856.56 591.61
  C 858.35 589.90 860.06 588.82 861.70 588.37
  C 865.28 587.39 868.45 587.37 871.22 588.30
  C 875.38 589.69 879.46 591.31 883.36 593.46
  C 891.21 597.78 898.52 602.46 905.29 607.50
  C 910.17 611.13 915.05 614.71 919.92 618.26
  C 928.35 624.40 936.06 630.92 944.33 637.14
  C 947.90 639.82 951.67 642.06 955.07 644.90
  C 958.96 648.15 960.02 642.50 962.18 641.11
  C 963.59 640.20 964.69 641.59 965.96 642.05
  C 968.89 643.12 971.77 644.19 974.60 645.24
  C 975.86 645.71 977.22 645.87 978.56 645.70
  L 987.21 644.59
  C 987.98 644.49 988.77 644.56 989.51 644.78
  L 1002.77 648.81
  C 1003.61 649.06 1004.47 648.46 1004.52 647.58
  C 1004.54 647.18 1004.65 646.81 1004.84 646.47
  C 1005.05 646.11 1005.48 645.94 1005.87 646.07
  C 1008.17 646.80 1010.44 647.55 1012.69 648.33
  C 1018.08 650.19 1025.04 647.54 1030.36 645.75
  C 1032.07 645.18 1033.76 645.23 1035.45 645.90
  C 1038.68 647.19 1042.74 649.19 1046.34 648.97
  C 1054.64 648.47 1062.24 648.45 1069.14 648.91
  C 1069.52 648.94 1069.87 648.85 1070.19 648.64
  C 1072.75 646.99 1075.74 646.51 1079.16 647.19
  C 1082.06 647.76 1086.02 648.11 1088.28 646.29
  C 1090.57 644.45 1093.31 646.10 1095.95 645.81
  C 1098.89 645.49 1101.71 644.91 1104.42 644.08
  C 1110.63 642.17 1117.04 640.66 1123.24 638.92
  C 1124.01 638.70 1125.27 638.98 1127.02 639.75
  C 1127.36 639.90 1127.71 639.93 1128.08 639.84
  C 1131.71 638.90 1132.31 633.45 1136.54 633.15
  C 1140.44 632.88 1143.88 631.50 1146.87 629.02
  C 1158.96 618.96 1169.22 606.73 1181.06 596.32
  C 1184.21 593.55 1187.52 590.68 1190.99 587.73
  C 1196.33 583.18 1201.98 579.73 1208.90 578.25
  C 1215.98 576.74 1221.48 582.43 1224.88 587.76
  C 1229.90 595.60 1233.12 604.41 1234.55 614.20
  C 1235.30 619.36 1235.87 624.69 1236.25 630.18
  C 1236.87 639.08 1235.55 648.24 1234.04 657.24
  C 1233.24 662.04 1232.00 666.77 1230.33 671.43
  C 1227.75 678.62 1226.25 683.00 1225.84 684.57
  C 1224.69 688.92 1223.59 693.41 1222.56 698.05
  C 1222.34 699.01 1222.39 700.02 1222.69 700.96
  C 1223.50 703.55 1224.28 706.24 1225.02 709.01
  C 1225.60 711.18 1225.56 712.80 1223.85 714.28
  C 1223.06 714.97 1222.86 716.12 1223.37 717.04
  C 1224.78 719.53 1226.05 720.70 1224.87 723.77
  C 1224.22 725.48 1224.08 727.30 1224.46 729.24
  C 1224.96 731.77 1224.85 734.54 1224.12 737.53
  C 1223.02 742.05 1224.30 746.10 1224.73 750.55
  C 1224.92 752.57 1225.46 754.46 1226.33 756.23
  C 1230.34 764.36 1234.72 772.80 1241.14 779.52
  C 1241.81 780.22 1242.25 781.05 1242.45 782.00
  C 1242.53 782.38 1242.48 782.74 1242.31 783.07
  C 1241.74 784.14 1241.55 785.19 1241.74 786.24
  C 1242.54 790.76 1243.63 795.26 1245.00 799.75
  C 1245.77 802.26 1248.55 803.54 1250.73 804.68
  C 1251.84 805.26 1252.32 806.60 1251.81 807.75
  C 1250.66 810.38 1247.94 815.54 1251.77 817.47
  C 1252.91 818.04 1253.77 818.93 1254.36 820.12
  C 1254.77 820.93 1254.40 821.91 1253.57 822.27
  C 1251.33 823.22 1249.07 824.51 1250.32 827.44
  C 1250.91 828.81 1252.55 829.42 1253.74 830.17
  C 1254.58 830.71 1254.87 831.80 1254.41 832.68
  C 1254.06 833.36 1254.17 833.88 1254.74 834.24
  C 1255.18 834.53 1255.78 834.64 1256.55 834.57
  C 1262.94 834.06 1269.51 834.06 1276.25 834.56
  C 1276.91 834.61 1277.32 833.85 1276.91 833.33
  C 1274.73 830.50 1275.04 826.54 1275.70 823.03
  C 1276.09 820.93 1275.25 819.06 1275.48 817.07
  C 1275.92 813.32 1276.33 809.66 1276.71 806.10
  C 1277.19 801.57 1278.76 796.82 1281.43 791.87
  C 1281.66 791.44 1281.99 791.13 1282.42 790.92
  C 1284.23 790.04 1285.60 788.71 1286.54 786.93
  C 1288.23 783.74 1290.89 783.78 1293.52 782.02
  C 1296.34 780.13 1299.21 778.99 1302.14 778.61
  C 1307.71 777.88 1313.09 776.17 1318.56 775.69
  C 1321.98 775.39 1325.28 774.95 1328.47 774.37
  C 1330.38 774.02 1331.99 774.67 1333.80 774.46
  C 1337.58 774.01 1341.01 773.91 1344.10 774.14
  C 1346.90 774.35 1349.60 774.53 1352.19 774.66
  C 1358.91 774.99 1365.72 776.17 1372.63 778.19
  C 1375.92 779.15 1378.77 780.30 1381.20 781.63
  C 1384.78 783.59 1388.36 785.37 1391.93 786.97
  C 1394.96 788.32 1397.10 790.77 1398.76 793.51
  C 1399.80 795.24 1401.07 796.71 1402.43 798.18
  C 1404.50 800.41 1404.30 805.05 1403.64 807.76
  C 1402.86 810.95 1402.68 814.13 1403.09 817.29
  C 1403.78 822.58 1403.64 828.29 1400.92 832.77
  C 1400.46 833.51 1401.00 834.47 1401.88 834.47
  L 1440.00 834.40
  Z
  M 1145.07 787.04
  C 1144.82 785.70 1144.65 784.35 1144.58 783.00
  C 1144.00 772.55 1134.77 762.56 1124.64 760.53
  C 1120.61 759.72 1116.46 759.33 1112.21 759.35
  C 1111.41 759.36 1110.65 759.59 1109.93 760.05
  C 1109.52 760.32 1109.24 760.68 1109.09 761.14
  C 1109.01 761.37 1109.19 761.61 1109.43 761.60
  C 1114.62 761.45 1118.13 761.57 1119.98 761.98
  C 1128.32 763.83 1134.36 768.54 1138.11 776.10
  C 1145.25 790.47 1138.62 807.44 1123.25 812.48
  C 1119.91 813.57 1116.69 813.15 1113.33 813.29
  C 1110.92 813.38 1108.56 813.16 1106.24 812.62
  C 1097.03 810.47 1091.02 804.84 1088.21 795.71
  C 1086.99 791.76 1087.55 787.67 1087.45 783.57
  C 1087.41 781.94 1087.77 780.36 1088.54 778.83
  C 1089.45 777.02 1090.25 775.06 1090.92 772.95
  C 1090.93 772.92 1090.93 772.89 1090.91 772.86
  C 1090.89 772.83 1090.86 772.81 1090.82 772.81
  C 1090.67 772.82 1090.57 772.90 1090.52 773.03
  C 1089.84 774.74 1087.61 774.84 1086.88 776.92
  C 1085.93 779.63 1084.73 782.00 1084.44 784.97
  C 1083.79 791.67 1084.67 797.46 1087.06 802.33
  C 1089.95 808.20 1093.84 812.43 1098.74 815.01
  C 1111.67 821.80 1128.08 820.09 1138.35 809.15
  C 1141.12 806.20 1143.03 802.56 1144.10 798.21
  C 1144.91 794.90 1145.71 790.43 1145.07 787.04
  Z
  M 934.47 793.01
  C 932.69 783.84 934.48 775.98 941.66 769.39
  C 944.55 766.73 948.51 764.54 953.56 762.83
  C 955.75 762.08 955.70 761.55 953.41 761.23
  C 952.40 761.09 951.42 761.17 950.47 761.46
  C 943.23 763.75 937.20 767.67 932.74 774.14
  C 931.75 775.57 931.28 777.12 930.47 778.63
  C 929.94 779.62 929.57 780.74 929.35 782.01
  C 928.16 788.81 928.95 795.53 931.72 802.17
  C 934.81 809.54 942.07 814.78 949.48 817.02
  C 960.37 820.31 970.38 818.91 979.51 812.83
  C 983.86 809.94 987.03 805.98 989.02 800.95
  C 991.21 795.46 990.80 787.80 989.14 782.26
  C 988.40 779.76 986.97 777.26 984.84 774.76
  C 984.65 774.53 984.47 774.29 984.32 774.03
  C 984.15 773.76 983.93 773.61 983.65 773.58
  C 983.10 773.52 982.92 773.75 983.12 774.27
  C 984.99 779.21 986.85 784.06 986.87 789.50
  C 986.90 802.10 978.06 810.18 966.16 812.11
  C 961.02 812.95 955.97 812.58 951.00 811.01
  C 942.70 808.39 936.14 801.66 934.47 793.01
  Z
  M 1116.0486 776.8300
  C 1117.35 774.90 1116.79 772.25 1114.7903 770.8939
  C 1112.79 769.54 1110.11 770.00 1108.8114 771.9300
  C 1107.51 773.86 1108.07 776.51 1110.0697 777.8661
  C 1112.07 779.22 1114.75 778.76 1116.0486 776.8300
  Z
  M 964.65 779.71
  C 966.76 779.23 968.39 775.87 967.25 774.04
  C 966.48 772.79 965.27 771.84 963.63 771.18
  C 963.27 771.03 962.87 771.04 962.51 771.19
  C 960.72 771.95 959.39 773.12 958.50 774.70
  C 958.33 774.99 958.29 775.31 958.36 775.64
  C 959.14 779.12 961.24 780.48 964.65 779.71
  Z
  M 1127.44 778.53
  C 1127.58 778.48 1127.67 778.38 1127.72 778.23
  C 1127.80 777.95 1127.63 777.66 1127.35 777.59
  C 1125.76 777.21 1124.20 777.05 1122.68 777.10
  C 1121.08 777.16 1120.28 779.05 1121.36 780.23
  C 1121.95 780.88 1122.74 781.16 1123.71 781.07
  C 1124.18 781.03 1124.61 780.80 1124.89 780.42
  C 1125.55 779.55 1126.40 778.92 1127.44 778.53
  Z
  M 972.8333 782.8253
  C 973.95 783.13 975.13 782.36 975.4750 781.1050
  C 975.82 779.85 975.20 778.58 974.0867 778.2747
  C 972.97 777.97 971.79 778.74 971.4450 779.9950
  C 971.10 781.25 971.72 782.52 972.8333 782.8253
  Z
  M 977.77 779.53
  C 977.85 779.30 977.88 779.06 977.86 778.82
  C 977.83 778.39 977.60 778.18 977.17 778.21
  C 976.90 778.22 976.65 778.30 976.43 778.44
  C 976.21 778.59 976.16 778.88 976.31 779.10
  C 976.52 779.41 976.79 779.65 977.11 779.81
  C 977.37 779.94 977.68 779.80 977.77 779.53
  Z"
/>
<path fill="#f3df38" d="
  M 1145.07 787.04
  C 1145.71 790.43 1144.91 794.90 1144.10 798.21
  C 1143.03 802.56 1141.12 806.20 1138.35 809.15
  C 1128.08 820.09 1111.67 821.80 1098.74 815.01
  C 1093.84 812.43 1089.95 808.20 1087.06 802.33
  C 1084.67 797.46 1083.79 791.67 1084.44 784.97
  C 1084.73 782.00 1085.93 779.63 1086.88 776.92
  C 1087.61 774.84 1089.84 774.74 1090.52 773.03
  C 1090.57 772.90 1090.67 772.82 1090.82 772.81
  C 1090.86 772.81 1090.89 772.83 1090.91 772.86
  C 1090.93 772.89 1090.93 772.92 1090.92 772.95
  C 1090.25 775.06 1089.45 777.02 1088.54 778.83
  C 1087.77 780.36 1087.41 781.94 1087.45 783.57
  C 1087.55 787.67 1086.99 791.76 1088.21 795.71
  C 1091.02 804.84 1097.03 810.47 1106.24 812.62
  C 1108.56 813.16 1110.92 813.38 1113.33 813.29
  C 1116.69 813.15 1119.91 813.57 1123.25 812.48
  C 1138.62 807.44 1145.25 790.47 1138.11 776.10
  C 1134.36 768.54 1128.32 763.83 1119.98 761.98
  C 1118.13 761.57 1114.62 761.45 1109.43 761.60
  C 1109.19 761.61 1109.01 761.37 1109.09 761.14
  C 1109.24 760.68 1109.52 760.32 1109.93 760.05
  C 1110.65 759.59 1111.41 759.36 1112.21 759.35
  C 1116.46 759.33 1120.61 759.72 1124.64 760.53
  C 1134.77 762.56 1144.00 772.55 1144.58 783.00
  C 1144.65 784.35 1144.82 785.70 1145.07 787.04
  Z"
/>
<path fill="#f3df38" d="
  M 934.47 793.01
  C 936.14 801.66 942.70 808.39 951.00 811.01
  C 955.97 812.58 961.02 812.95 966.16 812.11
  C 978.06 810.18 986.90 802.10 986.87 789.50
  C 986.85 784.06 984.99 779.21 983.12 774.27
  C 982.92 773.75 983.10 773.52 983.65 773.58
  C 983.93 773.61 984.15 773.76 984.32 774.03
  C 984.47 774.29 984.65 774.53 984.84 774.76
  C 986.97 777.26 988.40 779.76 989.14 782.26
  C 990.80 787.80 991.21 795.46 989.02 800.95
  C 987.03 805.98 983.86 809.94 979.51 812.83
  C 970.38 818.91 960.37 820.31 949.48 817.02
  C 942.07 814.78 934.81 809.54 931.72 802.17
  C 928.95 795.53 928.16 788.81 929.35 782.01
  C 929.57 780.74 929.94 779.62 930.47 778.63
  C 931.28 777.12 931.75 775.57 932.74 774.14
  C 937.20 767.67 943.23 763.75 950.47 761.46
  C 951.42 761.17 952.40 761.09 953.41 761.23
  C 955.70 761.55 955.75 762.08 953.56 762.83
  C 948.51 764.54 944.55 766.73 941.66 769.39
  C 934.48 775.98 932.69 783.84 934.47 793.01
  Z"
/>
<ellipse fill="#f3df38" cx="0.00" cy="0.00" transform="translate(1112.43,774.38) rotate(34.1)" rx="4.37" ry="4.21"/>
<path fill="#f3df38" d="
  M 967.25 774.04
  C 968.39 775.87 966.76 779.23 964.65 779.71
  C 961.24 780.48 959.14 779.12 958.36 775.64
  C 958.29 775.31 958.33 774.99 958.50 774.70
  C 959.39 773.12 960.72 771.95 962.51 771.19
  C 962.87 771.04 963.27 771.03 963.63 771.18
  C 965.27 771.84 966.48 772.79 967.25 774.04
  Z"
/>
<path fill="#f3df38" d="
  M 1127.44 778.53
  C 1126.40 778.92 1125.55 779.55 1124.89 780.42
  C 1124.61 780.80 1124.18 781.03 1123.71 781.07
  C 1122.74 781.16 1121.95 780.88 1121.36 780.23
  C 1120.28 779.05 1121.08 777.16 1122.68 777.10
  C 1124.20 777.05 1125.76 777.21 1127.35 777.59
  C 1127.63 777.66 1127.80 777.95 1127.72 778.23
  C 1127.67 778.38 1127.58 778.48 1127.44 778.53
  Z"
/>
<ellipse fill="#f3df38" cx="0.00" cy="0.00" transform="translate(973.46,780.55) rotate(105.4)" rx="2.36" ry="2.09"/>
<path fill="#f3df38" d="
  M 977.77 779.53
  C 977.68 779.80 977.37 779.94 977.11 779.81
  C 976.79 779.65 976.52 779.41 976.31 779.10
  C 976.16 778.88 976.21 778.59 976.43 778.44
  C 976.65 778.30 976.90 778.22 977.17 778.21
  C 977.60 778.18 977.83 778.39 977.86 778.82
  C 977.88 779.06 977.85 779.30 977.77 779.53
  Z"
/>
</svg>
